        <svg
          className="p-1"
          width="16"
          height="16"
          viewBox="0 0 16 16"
          fill="none"
          xmlns="http://www.w3.org/2000/svg"
        >
          <g clip-path="url(#clip0_11_78)">
            <g clip-path="url(#clip1_11_78)">
              <path
                d="M1.90454 8.00006V16.0021L5.31761 15.994C7.19298 15.988 8.76685 15.98 8.81107 15.9739C9.05911 15.9435 9.30642 15.9073 9.55278 15.8654L9.63318 15.8513L9.83419 15.8111L9.96484 15.779L10.0955 15.7488C10.2684 15.7146 10.8875 15.5096 11.1307 15.4051L11.2613 15.3488L11.4362 15.2684L11.597 15.196C11.6231 15.186 11.6573 15.1679 11.6734 15.1599L11.7638 15.1096C12.0779 14.9497 12.3802 14.7677 12.6684 14.5649L12.7488 14.5086L12.9799 14.3317C13.5456 13.8971 14.0506 13.3887 14.4814 12.8202C14.5295 12.765 14.5706 12.7043 14.604 12.6393C14.6201 12.6332 14.8231 12.3438 14.8493 12.2915L15.006 12.0262C15.0865 11.8935 15.1689 11.7408 15.191 11.6905C15.2131 11.6403 15.2412 11.594 15.2513 11.588C15.2633 11.582 15.2714 11.5578 15.2714 11.5357C15.2714 11.5156 15.2814 11.4975 15.2915 11.4975C15.3035 11.4975 15.3116 11.4855 15.3116 11.4714C15.3116 11.4594 15.3256 11.4192 15.3437 11.387C15.4027 11.2798 15.4479 11.1657 15.4784 11.0473C15.4704 11.0413 15.4744 11.0352 15.4865 11.0352C15.5045 11.0352 15.5186 11.0091 15.5287 10.9488C15.5307 10.9408 15.5447 10.9086 15.5608 10.8784C15.6701 10.5906 15.7647 10.2975 15.8442 10.0001L15.8965 9.77895C15.9259 9.66646 15.9487 9.55237 15.9648 9.43724L15.9849 9.32669C16.0026 9.24377 16.0154 9.15987 16.0231 9.07543C16.0392 8.98498 16.0473 8.91262 16.0694 8.65332C16.0895 8.41212 16.0895 7.54981 16.0694 7.34679L16.0432 7.08548C16.0392 7.0292 16.0251 6.93071 16.0151 6.86438L15.9829 6.65332C15.9769 6.60307 15.9669 6.54478 15.9608 6.52267L15.9066 6.25935C15.8844 6.14076 15.7478 5.65232 15.6834 5.46739L15.605 5.23624C15.597 5.21011 15.5749 5.14981 15.5427 5.07543L15.4603 4.87443C15.4302 4.79604 15.3277 4.58498 15.2352 4.40207C15.1378 4.19849 15.0291 4.00052 14.9096 3.8091L14.799 3.63021C14.6402 3.3689 14.2663 2.89051 13.9749 2.57493C13.7416 2.32423 13.4932 2.08795 13.2312 1.86739L13.1608 1.8091C13.072 1.72619 12.9757 1.65152 12.8734 1.58599C12.8312 1.54579 12.2442 1.14579 12.2282 1.14579C12.2241 1.14579 12.1618 1.11161 12.0935 1.0694C12.0231 1.02719 11.9387 0.980961 11.9045 0.964881C11.8724 0.948801 11.8402 0.93071 11.8342 0.92267C11.804 0.890509 11.1186 0.580961 10.9297 0.51664L10.7086 0.436238C10.6592 0.41625 10.6089 0.398807 10.5578 0.383977C10.4462 0.354829 10.3356 0.32198 10.2261 0.285484C10.188 0.273424 10.1658 0.265384 10.1156 0.253323L9.66333 0.150811C9.5603 0.129316 9.45634 0.112548 9.35178 0.100559C9.35178 0.0945293 9.29952 0.0864891 9.18092 0.0724187L8.98997 0.0482981L8.79901 0.0261876C8.73871 0.0201574 7.16283 0.0101072 5.29751 0.00608708L1.90454 -0.00195312V8.00006Z"
                fill="black"
              />
            </g>
          </g>
          <defs>
            <clipPath id="clip0_11_78">
              <rect width="16" height="16" fill="white" />
            </clipPath>
            <clipPath id="clip1_11_78">
              <rect
                width="16"
                height="16"
                fill="white"
                transform="translate(1)"
              />
            </clipPath>
          </defs>
        </svg>